<?xml version="1.0" encoding="UTF-8"?>
<svg id="Layer_1" data-name="Layer 1" xmlns="http://www.w3.org/2000/svg" viewBox="0 0 385.52 476.14">
  <defs>
    <style>
      .cls-1 {
        opacity: .95;
      }

      .cls-1, .cls-2 {
        isolation: isolate;
      }

      .cls-2 {
        opacity: .55;
      }

      .cls-3 {
        fill: #a8a29e;
      }

      .cls-4 {
        fill: #0d9488;
      }
    </style>
  </defs>
  <g class="cls-1">
    <path class="cls-4" d="M117.19,308.77c-18.97,0-35.94-3.22-50.92-9.65-14.98-6.43-26.77-16.14-35.38-29.13-8.61-12.98-12.92-29.24-12.92-48.78v-7.5h31.08v7.5c0,20.73,6.36,36.16,19.09,46.28,12.73,10.13,29.08,15.19,49.05,15.19s36.07-4.41,46.8-13.22c10.73-8.81,16.1-19.89,16.1-33.24,0-9.29-2.43-16.67-7.3-22.16-4.87-5.48-11.67-9.94-20.41-13.4-8.74-3.45-18.97-6.49-30.7-9.11l-19.47-4.65c-15.23-3.81-28.71-8.45-40.44-13.94-11.74-5.48-20.91-12.69-27.52-21.62-6.62-8.93-9.92-20.43-9.92-34.49s3.68-26.21,11.04-36.45c7.36-10.24,17.72-18.1,31.08-23.59,13.35-5.48,28.77-8.22,46.24-8.22s33.63,2.92,47.74,8.76c14.1,5.84,25.21,14.42,33.32,25.73,8.11,11.32,12.17,25.55,12.17,42.71v15.01h-31.08v-15.01c0-12.15-2.69-21.92-8.05-29.3-5.37-7.38-12.73-12.87-22.09-16.44-9.36-3.57-20.03-5.36-32.01-5.36-17.22,0-31.08,3.64-41.56,10.9-10.48,7.27-15.73,17.57-15.73,30.91,0,8.82,2.25,15.96,6.74,21.44,4.49,5.48,10.86,9.95,19.1,13.4,8.24,3.46,18.09,6.49,29.58,9.11l19.47,4.65c15.22,3.1,28.89,7.33,41,12.69,12.1,5.36,21.77,12.63,29.02,21.8,7.24,9.17,10.86,21.15,10.86,35.92s-3.87,27.64-11.61,38.6c-7.74,10.96-18.66,19.48-32.76,25.55-14.1,6.08-30.64,9.11-49.61,9.11Z"/>
  </g>
  <g class="cls-2">
    <path class="cls-3" d="M273.2,383.22c-18.97,0-35.94-3.22-50.92-9.65-14.98-6.43-26.77-16.14-35.38-29.13-8.61-12.98-12.92-29.24-12.92-48.78v-7.5h31.08v7.5c0,20.73,6.36,36.16,19.09,46.28,12.73,10.13,29.08,15.19,49.05,15.19s36.07-4.41,46.8-13.22c10.73-8.81,16.1-19.89,16.1-33.24,0-9.29-2.43-16.67-7.3-22.16-4.87-5.48-11.67-9.95-20.41-13.4-8.74-3.45-18.97-6.49-30.7-9.11l-19.47-4.65c-15.23-3.81-28.71-8.46-40.44-13.94-11.74-5.48-20.91-12.69-27.52-21.62-6.62-8.93-9.92-20.43-9.92-34.49s3.68-26.21,11.04-36.45c7.36-10.24,17.72-18.1,31.08-23.59,13.35-5.48,28.76-8.22,46.24-8.22s33.63,2.92,47.74,8.76c14.1,5.84,25.21,14.42,33.32,25.73,8.11,11.32,12.17,25.55,12.17,42.71v15.01h-31.08v-15.01c0-12.15-2.68-21.92-8.05-29.3-5.37-7.38-12.73-12.87-22.09-16.44s-20.03-5.36-32.01-5.36c-17.22,0-31.08,3.64-41.56,10.9-10.48,7.27-15.73,17.57-15.73,30.91,0,8.82,2.25,15.96,6.74,21.44,4.49,5.48,10.86,9.95,19.1,13.4,8.24,3.46,18.09,6.49,29.58,9.11l19.47,4.65c15.22,3.1,28.89,7.33,41,12.69,12.1,5.36,21.77,12.63,29.02,21.8,7.24,9.17,10.86,21.15,10.86,35.92s-3.87,27.64-11.61,38.6c-7.74,10.96-18.66,19.48-32.76,25.55-14.1,6.08-30.64,9.11-49.61,9.11Z"/>
  </g>
</svg>