<?xml version="1.0" encoding="UTF-8"?>
<svg id="Layer_1" data-name="Layer 1" xmlns="http://www.w3.org/2000/svg" viewBox="0 0 495.26 127.9">
  <defs>
    <style>
      .cls-1 {
        opacity: .95;
      }

      .cls-1, .cls-2, .cls-3 {
        isolation: isolate;
      }

      .cls-2 {
        opacity: .45;
      }

      .cls-4 {
        fill: none;
        stroke: #d6d3d1;
        stroke-miterlimit: 8;
        stroke-width: 2px;
      }

      .cls-5 {
        fill: #fafaf9;
      }

      .cls-6 {
        fill: #0d9488;
      }
    </style>
  </defs>
  <g>
    <g class="cls-1">
      <path class="cls-6" d="M30.05,82.94c-4.86,0-9.22-.86-13.06-2.59-3.84-1.73-6.86-4.33-9.07-7.82-2.21-3.49-3.31-7.86-3.31-13.1v-2.02h7.97v2.02c0,5.57,1.63,9.71,4.9,12.43,3.26,2.72,7.45,4.08,12.58,4.08s9.25-1.18,12-3.55c2.75-2.37,4.13-5.34,4.13-8.93,0-2.5-.62-4.48-1.87-5.95-1.25-1.47-2.99-2.67-5.23-3.6-2.24-.93-4.86-1.74-7.87-2.45l-4.99-1.25c-3.9-1.02-7.36-2.27-10.37-3.74-3.01-1.47-5.36-3.41-7.06-5.81-1.7-2.4-2.54-5.49-2.54-9.26s.94-7.04,2.83-9.79c1.89-2.75,4.54-4.86,7.97-6.34,3.42-1.47,7.38-2.21,11.86-2.21s8.62.78,12.24,2.35c3.61,1.57,6.46,3.87,8.54,6.91,2.08,3.04,3.12,6.86,3.12,11.47v4.03h-7.97v-4.03c0-3.26-.69-5.89-2.06-7.87-1.38-1.98-3.26-3.46-5.66-4.42s-5.14-1.44-8.21-1.44c-4.42,0-7.97.98-10.66,2.93-2.69,1.95-4.03,4.72-4.03,8.3,0,2.37.58,4.29,1.73,5.76,1.15,1.47,2.78,2.67,4.9,3.6,2.11.93,4.64,1.74,7.58,2.45l4.99,1.25c3.9.83,7.41,1.97,10.51,3.41,3.1,1.44,5.58,3.39,7.44,5.86,1.86,2.46,2.78,5.68,2.78,9.65s-.99,7.42-2.98,10.37c-1.98,2.94-4.79,5.23-8.4,6.86-3.62,1.63-7.86,2.45-12.72,2.45Z"/>
    </g>
    <g class="cls-2">
      <path class="cls-5" d="M70.05,102.94c-4.86,0-9.22-.86-13.06-2.59-3.84-1.73-6.86-4.33-9.07-7.82-2.21-3.49-3.31-7.86-3.31-13.1v-2.02h7.97v2.02c0,5.57,1.63,9.71,4.9,12.43,3.26,2.72,7.45,4.08,12.58,4.08s9.25-1.18,12-3.55c2.75-2.37,4.13-5.34,4.13-8.93,0-2.5-.62-4.48-1.87-5.95-1.25-1.47-2.99-2.67-5.23-3.6-2.24-.93-4.86-1.74-7.87-2.45l-4.99-1.25c-3.9-1.02-7.36-2.27-10.37-3.74-3.01-1.47-5.36-3.41-7.06-5.81-1.7-2.4-2.54-5.49-2.54-9.26s.94-7.04,2.83-9.79c1.89-2.75,4.54-4.86,7.97-6.34,3.42-1.47,7.38-2.21,11.86-2.21s8.62.78,12.24,2.35c3.61,1.57,6.46,3.87,8.54,6.91,2.08,3.04,3.12,6.86,3.12,11.47v4.03h-7.97v-4.03c0-3.26-.69-5.89-2.06-7.87-1.38-1.98-3.26-3.46-5.66-4.42s-5.14-1.44-8.21-1.44c-4.42,0-7.97.98-10.66,2.93-2.69,1.95-4.03,4.72-4.03,8.3,0,2.37.58,4.29,1.73,5.76,1.15,1.47,2.78,2.67,4.9,3.6,2.11.93,4.64,1.74,7.58,2.45l4.99,1.25c3.9.83,7.41,1.97,10.51,3.41,3.1,1.44,5.58,3.39,7.44,5.86,1.86,2.46,2.78,5.68,2.78,9.65s-.99,7.42-2.98,10.37c-1.98,2.94-4.79,5.23-8.4,6.86-3.62,1.63-7.86,2.45-12.72,2.45Z"/>
    </g>
  </g>
  <line class="cls-4" x1="126.06" y1="18.26" x2="126.06" y2="109.38"/>
  <g class="cls-3">
    <g class="cls-3">
      <path class="cls-5" d="M168.88,83.73c-2.95,0-5.56-.52-7.84-1.57-2.28-1.04-4.06-2.58-5.35-4.62-1.29-2.03-1.93-4.51-1.93-7.42v-1.4h5.99v1.4c0,2.76.83,4.83,2.49,6.22,1.66,1.38,3.87,2.07,6.64,2.07s4.91-.59,6.33-1.76c1.42-1.18,2.13-2.7,2.13-4.56,0-1.23-.34-2.24-1.01-3.02-.67-.78-1.62-1.41-2.86-1.88-1.23-.47-2.71-.9-4.42-1.32l-2.07-.5c-2.5-.6-4.68-1.33-6.52-2.21-1.85-.88-3.28-2.04-4.28-3.5-1.01-1.46-1.51-3.32-1.51-5.6s.57-4.29,1.71-5.94c1.14-1.64,2.72-2.91,4.73-3.81,2.02-.9,4.39-1.34,7.11-1.34s5.16.47,7.31,1.4c2.15.93,3.84,2.32,5.07,4.14,1.23,1.83,1.85,4.13,1.85,6.89v2.02h-5.99v-2.02c0-1.68-.35-3.04-1.04-4.09-.69-1.04-1.65-1.81-2.88-2.3-1.23-.48-2.67-.73-4.31-.73-2.39,0-4.25.5-5.57,1.48-1.33.99-1.99,2.36-1.99,4.12,0,1.2.29,2.18.87,2.94.58.77,1.43,1.39,2.55,1.88s2.52.92,4.2,1.29l2.07.5c2.54.56,4.78,1.28,6.72,2.16,1.94.88,3.47,2.06,4.59,3.56s1.68,3.42,1.68,5.77-.59,4.41-1.76,6.16c-1.18,1.76-2.85,3.13-5.01,4.12-2.17.99-4.72,1.48-7.67,1.48Z"/>
      <path class="cls-5" d="M200.19,82.94c-1.68,0-3.02-.5-4-1.51-.99-1.01-1.48-2.35-1.48-4.03v-17.19h-7.62v-4.87h7.62v-9.13h5.77v9.13h8.23v4.87h-8.23v16.18c0,1.12.52,1.68,1.57,1.68h5.77v4.87h-7.62Z"/>
      <path class="cls-5" d="M223.99,83.73c-1.98,0-3.74-.34-5.29-1.01-1.55-.67-2.78-1.66-3.7-2.97-.92-1.31-1.37-2.89-1.37-4.76s.46-3.48,1.37-4.73c.91-1.25,2.17-2.19,3.75-2.83,1.59-.63,3.39-.95,5.4-.95h8.4v-1.79c0-1.61-.49-2.89-1.46-3.86-.97-.97-2.46-1.46-4.48-1.46s-3.49.47-4.54,1.4c-1.05.93-1.74,2.15-2.07,3.64l-5.38-1.74c.45-1.49,1.17-2.85,2.16-4.06.99-1.21,2.3-2.19,3.95-2.94,1.64-.75,3.62-1.12,5.94-1.12,3.58,0,6.4.92,8.46,2.74,2.05,1.83,3.08,4.42,3.08,7.78v11.37c0,1.12.52,1.68,1.57,1.68h2.35v4.82h-4.31c-1.31,0-2.37-.34-3.19-1.01-.82-.67-1.23-1.59-1.23-2.74v-.17h-.84c-.3.56-.75,1.21-1.34,1.96-.6.75-1.48,1.39-2.63,1.93-1.16.54-2.69.81-4.59.81ZM224.83,78.97c2.31,0,4.18-.66,5.6-1.99,1.42-1.33,2.13-3.15,2.13-5.46v-.56h-8.06c-1.53,0-2.76.33-3.7.98-.93.65-1.4,1.62-1.4,2.88s.48,2.28,1.46,3.02c.97.75,2.3,1.12,3.98,1.12Z"/>
      <path class="cls-5" d="M247.73,82.94v-27.61h5.66v3.25h.9c.45-1.16,1.17-2.01,2.16-2.55.99-.54,2.21-.81,3.67-.81h3.3v5.21h-3.53c-1.87,0-3.4.51-4.59,1.54-1.2,1.03-1.79,2.6-1.79,4.73v16.24h-5.77Z"/>
      <path class="cls-5" d="M279.76,82.94c-1.68,0-3.02-.5-4-1.51-.99-1.01-1.48-2.35-1.48-4.03v-17.19h-7.62v-4.87h7.62v-9.13h5.77v9.13h8.23v4.87h-8.23v16.18c0,1.12.52,1.68,1.57,1.68h5.77v4.87h-7.62Z"/>
    </g>
    <g class="cls-3">
      <path class="cls-6" d="M330.11,82.94c-1.06-1.06-2.07-2.13-3.53-3.7-3.25,3.02-6.89,4.31-11.03,4.31-7.34,0-11.59-4.93-11.59-10.58,0-5.15,3.08-8.68,7.39-11.03v-.17c-1.96-2.46-3.14-5.21-3.14-7.9,0-4.59,3.3-9.3,9.58-9.3,4.7,0,8.34,3.14,8.34,8.01,0,3.98-2.3,7.11-8.29,10.08v.17c3.19,3.7,6.78,7.84,9.18,10.53,1.74-2.63,2.91-6.27,3.64-11.03h4.48c-1.01,5.94-2.63,10.64-5.43,13.94,2.02,2.13,3.98,4.26,6.22,6.66h-5.82ZM324.17,76.45c-2.24-2.46-6.44-7.06-10.64-11.87-2.02,1.29-4.87,3.7-4.87,7.67,0,4.31,3.19,7.62,7.73,7.62,3.25,0,5.99-1.46,7.78-3.42ZM312.69,53.43c0,2.69,1.23,4.76,2.86,6.78,3.81-2.18,6.27-4.2,6.27-7.39,0-2.3-1.29-4.87-4.37-4.87s-4.76,2.58-4.76,5.49Z"/>
    </g>
    <g class="cls-3">
      <path class="cls-5" d="M366.07,83.73c-2.95,0-5.56-.52-7.84-1.57-2.28-1.04-4.06-2.58-5.35-4.62s-1.93-4.51-1.93-7.42v-1.4h5.99v1.4c0,2.76.83,4.84,2.49,6.22,1.66,1.38,3.87,2.07,6.64,2.07s4.91-.59,6.33-1.76,2.13-2.7,2.13-4.56c0-1.23-.34-2.24-1.01-3.02s-1.62-1.41-2.86-1.88c-1.23-.47-2.71-.91-4.42-1.32l-2.07-.5c-2.5-.6-4.68-1.33-6.52-2.21-1.85-.88-3.28-2.04-4.28-3.5s-1.51-3.32-1.51-5.6.57-4.29,1.71-5.94c1.14-1.64,2.72-2.91,4.73-3.81,2.02-.9,4.39-1.34,7.11-1.34s5.16.47,7.31,1.4c2.15.93,3.84,2.32,5.07,4.14,1.23,1.83,1.85,4.12,1.85,6.89v2.02h-5.99v-2.02c0-1.68-.35-3.04-1.04-4.09-.69-1.04-1.65-1.81-2.88-2.3-1.23-.49-2.67-.73-4.31-.73-2.39,0-4.25.5-5.57,1.48s-1.99,2.36-1.99,4.12c0,1.2.29,2.17.87,2.94.58.77,1.43,1.39,2.55,1.88,1.12.49,2.52.92,4.2,1.29l2.07.5c2.54.56,4.78,1.28,6.72,2.16,1.94.88,3.47,2.06,4.59,3.56,1.12,1.49,1.68,3.42,1.68,5.77s-.59,4.41-1.76,6.16c-1.18,1.75-2.85,3.13-5.01,4.12-2.17.99-4.72,1.48-7.67,1.48Z"/>
      <path class="cls-5" d="M399.84,83.73c-2.65,0-5.05-.56-7.2-1.68s-3.84-2.74-5.1-4.87-1.88-4.68-1.88-7.67v-.73c0-2.99.62-5.53,1.88-7.64s2.95-3.73,5.1-4.87,4.54-1.71,7.2-1.71,4.91.49,6.78,1.46c1.87.97,3.37,2.26,4.51,3.86,1.14,1.61,1.88,3.38,2.21,5.32l-5.6,1.18c-.19-1.23-.58-2.35-1.18-3.36s-1.44-1.81-2.52-2.41c-1.08-.6-2.45-.9-4.09-.9s-3.05.36-4.34,1.09c-1.29.73-2.31,1.77-3.05,3.14-.75,1.36-1.12,3.02-1.12,4.96v.5c0,1.94.37,3.6,1.12,4.98s1.76,2.43,3.05,3.14c1.29.71,2.73,1.06,4.34,1.06,2.43,0,4.27-.62,5.54-1.88,1.27-1.25,2.07-2.85,2.41-4.79l5.6,1.29c-.45,1.9-1.24,3.66-2.38,5.26-1.14,1.61-2.64,2.88-4.51,3.84-1.87.95-4.13,1.43-6.78,1.43Z"/>
      <path class="cls-5" d="M428.74,83.73c-1.98,0-3.74-.34-5.29-1.01-1.55-.67-2.78-1.66-3.7-2.97-.92-1.31-1.37-2.89-1.37-4.76s.46-3.48,1.37-4.73c.91-1.25,2.17-2.19,3.75-2.83,1.59-.63,3.39-.95,5.4-.95h8.4v-1.79c0-1.6-.49-2.89-1.46-3.86-.97-.97-2.46-1.46-4.48-1.46s-3.49.47-4.54,1.4c-1.05.93-1.74,2.15-2.07,3.64l-5.38-1.74c.45-1.49,1.17-2.85,2.16-4.06.99-1.21,2.3-2.19,3.95-2.94,1.64-.75,3.62-1.12,5.94-1.12,3.58,0,6.4.92,8.46,2.74,2.05,1.83,3.08,4.42,3.08,7.78v11.37c0,1.12.52,1.68,1.57,1.68h2.35v4.82h-4.31c-1.31,0-2.37-.34-3.19-1.01-.82-.67-1.23-1.59-1.23-2.74v-.17h-.84c-.3.56-.75,1.21-1.34,1.96-.6.75-1.48,1.39-2.63,1.93-1.16.54-2.69.81-4.59.81ZM429.58,78.97c2.31,0,4.18-.66,5.6-1.99,1.42-1.32,2.13-3.14,2.13-5.46v-.56h-8.06c-1.53,0-2.76.33-3.7.98-.93.65-1.4,1.62-1.4,2.88s.49,2.28,1.46,3.02c.97.75,2.3,1.12,3.98,1.12Z"/>
      <path class="cls-5" d="M452.48,82.94v-39.2h5.77v39.2h-5.77Z"/>
      <path class="cls-5" d="M479.47,83.73c-2.8,0-5.25-.59-7.34-1.76-2.09-1.18-3.72-2.84-4.9-4.98-1.18-2.15-1.76-4.64-1.76-7.48v-.67c0-2.88.58-5.38,1.74-7.53,1.16-2.15,2.77-3.81,4.84-4.98,2.07-1.18,4.47-1.76,7.2-1.76s4.97.59,6.97,1.76c2,1.18,3.56,2.81,4.68,4.9s1.68,4.54,1.68,7.34v2.18h-21.22c.07,2.43.89,4.36,2.44,5.8,1.55,1.44,3.48,2.16,5.8,2.16,2.17,0,3.8-.48,4.9-1.46,1.1-.97,1.95-2.09,2.55-3.36l4.76,2.46c-.52,1.04-1.28,2.15-2.27,3.3-.99,1.16-2.29,2.13-3.89,2.91s-3.66,1.18-6.16,1.18ZM471.41,66.31h15.29c-.15-2.09-.9-3.72-2.24-4.9-1.34-1.18-3.1-1.76-5.26-1.76s-3.93.59-5.29,1.76c-1.36,1.18-2.19,2.81-2.49,4.9Z"/>
    </g>
  </g>
</svg>